<?xml version="1.0" encoding="UTF-8" standalone="no"?>
<svg width="24px" height="86px" viewBox="0 0 24 86" version="1.1" xmlns="http://www.w3.org/2000/svg" xmlns:xlink="http://www.w3.org/1999/xlink" xmlns:sketch="http://www.bohemiancoding.com/sketch/ns">
    <!-- Generator: Sketch 3.2.2 (9983) - http://www.bohemiancoding.com/sketch -->
    <title>element-sprite 2</title>
    <desc>Created with Sketch.</desc>
    <defs>
        <path id="path-1" d="M0,1.99508929 C0,0.893231902 0.889673948,0 1.991155,0 L20.008845,0 C21.1085295,0 22,0.892622799 22,1.99508929 L22,16.0049107 C22,17.1067681 21.1103261,18 20.008845,18 L1.991155,18 C0.891470458,18 0,17.1073772 0,16.0049107 L0,1.99508929 L0,1.99508929 Z"></path>
        <path id="path-3" d="M0,1.99508929 C0,0.893231902 0.889673948,0 1.991155,0 L20.008845,0 C21.1085295,0 22,0.892622799 22,1.99508929 L22,16.0049107 C22,17.1067681 21.1103261,18 20.008845,18 L1.991155,18 C0.891470458,18 0,17.1073772 0,16.0049107 L0,1.99508929 L0,1.99508929 Z"></path>
    </defs>
    <g id="Page-1" stroke="none" stroke-width="1" fill="none" fill-rule="evenodd" sketch:type="MSPage">
        <g id="element-sprite" sketch:type="MSLayerGroup">
            <g id="Page-1">
                <g id="Align-Left" transform="translate(0.000000, 66.000000)">
                    <mask id="mask-2" sketch:name="Rectangle-2" fill="white">
                        <use xlink:href="#path-1"></use>
                    </mask>
                    <use id="Rectangle-2" fill="#A1C5E6" sketch:type="MSShapeGroup" xlink:href="#path-1"></use>
                    <path d="M0,0 L0,18 L12,18 L12,0 L0,0 Z" id="Shape" fill="#8FA7BF" sketch:type="MSShapeGroup" mask="url(#mask-2)"></path>
                    <path d="M9,16 L10,16 L10,12 L8,9 L6.104,11.655 L3,7 L2,9 L2,16 L3,16 L9,16 Z" id="Shape" fill="#FFFFFF" sketch:type="MSShapeGroup" mask="url(#mask-2)"></path>
                    <circle id="Oval" fill="#FFFFFF" sketch:type="MSShapeGroup" mask="url(#mask-2)" cx="8" cy="4" r="2"></circle>
                    <path d="M15,4 L15.5,4 C15.5,2.672 17,2.797 17,2.797 L17,5 C17,6.547 16,6.5 16,6.5 L16,7 L19,7 L19,6.5 C19,6.5 18,6.562 18,5 L18,2.797 C18,2.797 19.5,2.641 19.5,4 L20,4 L20,2 L15,2 L15,4 L15,4 Z" id="Shape" fill-opacity="0.75" fill="#FFFFFF" sketch:type="MSShapeGroup" mask="url(#mask-2)"></path>
                    <rect id="Rectangle-path" fill-opacity="0.75" fill="#FFFFFF" sketch:type="MSShapeGroup" mask="url(#mask-2)" x="15" y="9" width="5" height="1"></rect>
                    <rect id="Rectangle-path" fill-opacity="0.75" fill="#FFFFFF" sketch:type="MSShapeGroup" mask="url(#mask-2)" x="15" y="11" width="5" height="1"></rect>
                    <rect id="Rectangle-path" fill-opacity="0.75" fill="#FFFFFF" sketch:type="MSShapeGroup" mask="url(#mask-2)" x="15" y="13" width="5" height="1"></rect>
                    <rect id="Rectangle-path" fill-opacity="0.75" fill="#FFFFFF" sketch:type="MSShapeGroup" mask="url(#mask-2)" x="15" y="15" width="3" height="1"></rect>
                </g>
                <g id="Align-Right" transform="translate(0.000000, 34.000000)">
                    <mask id="mask-4" sketch:name="Rectangle-2" fill="white">
                        <use xlink:href="#path-3"></use>
                    </mask>
                    <use id="Rectangle-2" fill="#A1C5E6" sketch:type="MSShapeGroup" xlink:href="#path-3"></use>
                    <path d="M10,0 L10,18 L22,18 L22,0 L10,0 Z" id="Shape" fill="#8FA7BF" sketch:type="MSShapeGroup" mask="url(#mask-4)"></path>
                    <path d="M19,16 L20,16 L20,12 L18,9 L16.104,11.655 L13,7 L12,9 L12,16 L13,16 L19,16 Z" id="Shape" fill="#FFFFFF" sketch:type="MSShapeGroup" mask="url(#mask-4)"></path>
                    <circle id="Oval" fill="#FFFFFF" sketch:type="MSShapeGroup" mask="url(#mask-4)" cx="18" cy="4" r="2"></circle>
                    <path d="M2,4 L2.5,4 C2.5,2.672 4,2.797 4,2.797 L4,5 C4,6.547 3,6.5 3,6.5 L3,7 L6,7 L6,6.5 C6,6.5 5,6.562 5,5 L5,2.797 C5,2.797 6.5,2.641 6.5,4 L7,4 L7,2 L2,2 L2,4 L2,4 Z" id="Shape" fill-opacity="0.75" fill="#FFFFFF" sketch:type="MSShapeGroup" mask="url(#mask-4)"></path>
                    <rect id="Rectangle-path" fill-opacity="0.75" fill="#FFFFFF" sketch:type="MSShapeGroup" mask="url(#mask-4)" x="2" y="9" width="5" height="1"></rect>
                    <rect id="Rectangle-path" fill-opacity="0.75" fill="#FFFFFF" sketch:type="MSShapeGroup" mask="url(#mask-4)" x="2" y="11" width="5" height="1"></rect>
                    <rect id="Rectangle-path" fill-opacity="0.75" fill="#FFFFFF" sketch:type="MSShapeGroup" mask="url(#mask-4)" x="2" y="13" width="5" height="1"></rect>
                    <rect id="Rectangle-path" fill-opacity="0.75" fill="#FFFFFF" sketch:type="MSShapeGroup" mask="url(#mask-4)" x="2" y="15" width="3" height="1"></rect>
                </g>
                <g id="Element-Icon" transform="translate(1.000000, 3.000000)" sketch:type="MSShapeGroup">
                    <path d="M0,1.99508929 C0,0.893231902 0.889673948,0 1.991155,0 L20.008845,0 C21.1085295,0 22,0.892622799 22,1.99508929 L22,16.0049107 C22,17.1067681 21.1103261,18 20.008845,18 L1.991155,18 C0.891470458,18 0,17.1073772 0,16.0049107 L0,1.99508929 L0,1.99508929 Z M2.44444444,13.5 C2.44444444,12.4348794 3.30388738,11.5714286 4.38109189,11.5714286 L12.7300192,11.5714286 C13.7996001,11.5714286 14.6666667,12.4274536 14.6666667,13.5 C14.6666667,14.5651206 13.8072237,15.4285714 12.7300192,15.4285714 L4.38109189,15.4285714 C3.31151104,15.4285714 2.44444444,14.5725464 2.44444444,13.5 L2.44444444,13.5 Z" id="Rectangle-2" fill="#A1C5E6"></path>
                    <path d="M17.0470173,3.84649471 L16.2032491,3.00272654 C15.8469159,2.64639328 15.2621408,2.6420194 14.9041602,3 C14.5436838,3.36047638 14.5474003,3.93960254 14.9068867,4.29908897 L15.7506549,5.14285714 L14.9068867,5.98662531 C14.5505534,6.34295857 14.5461796,6.92773368 14.9041602,7.28571429 C15.2646365,7.64619066 15.8437627,7.64247417 16.2032491,7.28298775 L17.0470173,6.43921958 L17.8907855,7.28298775 C18.2471187,7.639321 18.8318938,7.64369489 19.1898744,7.28571429 C19.5503508,6.92523791 19.5466343,6.34611174 19.1871479,5.98662531 L18.3433797,5.14285714 L19.1871479,4.29908897 C19.5434812,3.94275572 19.547855,3.3579806 19.1898744,3 C18.8293981,2.63952362 18.2502719,2.64324011 17.8907855,3.00272654 L17.0470173,3.84649471 L17.0470173,3.84649471 Z" id="Path" fill="#537EA6"></path>
                </g>
            </g>
        </g>
    </g>
</svg>